<?xml version="1.0" encoding="UTF-8"?>
<svg width="170px" height="39px" viewBox="0 0 170 39" version="1.1" xmlns="http://www.w3.org/2000/svg" xmlns:xlink="http://www.w3.org/1999/xlink">
    <!-- Generator: sketchtool 51.1 (57501) - http://www.bohemiancoding.com/sketch -->
    <title>FB7440C7-41DB-4B4C-9F7B-074815D4CE23</title>
    <desc>Created with sketchtool.</desc>
    <defs></defs>
    <g id="Page-1" stroke="none" stroke-width="1" fill="none" fill-rule="evenodd">
        <g id="Testnet-" transform="translate(-164.000000, -53.000000)">
            <g id="cl-main-logo" transform="translate(164.000000, 53.000000)">
                <g id="Group-3-Copy-4">
                    <g id="Group" transform="translate(43.003953, 11.443656)" fill="#1559FF">
                        <path d="M5.19838523,15.7174475 C5.61105476,15.5672607 5.94767256,15.3624736 6.20838077,15.1027995 C6.46894683,14.8432687 6.68146524,14.5179596 6.84593601,14.126872 C7.01026464,13.7359278 7.12526624,13.3197614 7.19037222,12.878946 C7.25562034,12.437844 7.28803118,11.9389889 7.28803118,11.3822374 L7.28803118,10.6126734 L6.30149085,10.6126734 L6.30149085,11.5510542 C6.30149085,12.1204168 6.26424682,12.6068042 6.18975876,13.0102162 C6.11541285,13.4136282 5.98804395,13.7782037 5.80822068,14.1033695 C5.6281131,14.4286787 5.36911072,14.6728755 5.03092924,14.8352435 C4.69260561,14.9980413 4.27225983,15.079297 3.76974973,15.079297 C3.34769811,15.079297 2.97852732,15.0246966 2.66209522,14.915066 C2.34552097,14.805722 2.08495491,14.6523825 1.88011275,14.455334 C1.67541273,14.2581422 1.51094196,14.0049169 1.38684258,13.6952284 C1.26260104,13.3855398 1.17588784,13.0493392 1.12627652,12.6864834 C1.07652305,12.3237709 1.05193062,11.9015855 1.05193062,11.4196407 L1.05193062,4.53225859 C1.05193062,3.9442659 1.08903249,3.44211469 1.1633784,3.02609158 C1.23800861,2.61021179 1.37134793,2.23015899 1.56368064,1.8860765 C1.75601336,1.54213731 2.03534359,1.28403962 2.40138701,1.11192672 C2.76743044,0.939957128 3.22359873,0.853829024 3.76974973,0.853829024 C4.7251586,0.853829024 5.3860269,1.14316786 5.75221248,1.72184554 C6.1182559,2.30066652 6.30149085,3.1841603 6.30149085,4.3727568 L6.30149085,5.17026578 L7.28803118,5.17026578 L7.28803118,4.38207182 C7.28803118,3.69405014 7.22903777,3.09172665 7.11133527,2.57567456 C6.99334845,2.05962248 6.80257942,1.60304321 6.538886,1.20565015 C6.27490827,0.808543698 5.91199221,0.508313452 5.4498535,0.30495941 C4.98743049,0.101605367 4.42749067,0 3.76974973,0 C3.1863547,0 2.67602619,0.0766697764 2.23862207,0.229866021 C1.8010758,0.383348882 1.44114494,0.59272186 1.15868736,0.858558187 C0.876514078,1.12453782 0.648358856,1.45772891 0.474648152,1.85798813 C0.300937448,2.25839067 0.178401746,2.68358548 0.107183201,3.13414581 C0.0356803493,3.58456283 0,4.09115659 0,4.65407039 L0,11.2509672 C0,11.8077188 0.0326951408,12.3064306 0.0978011167,12.7475326 C0.163049245,13.1884913 0.280751752,13.6139727 0.451477248,14.0236903 C0.622060591,14.4334078 0.845382618,14.7743376 1.12158548,15.0464794 C1.39764619,15.318478 1.75914073,15.5360195 2.20592693,15.6986741 C2.65285529,15.8611854 3.17412956,15.9425843 3.76974973,15.9425843 C4.30964601,15.9425843 4.78571569,15.8674909 5.19838523,15.7174475 Z M17.683238,15.0887553 C17.9685386,14.8260717 18.1998212,14.4961767 18.3765171,14.0987837 C18.5534973,13.7013906 18.6775967,13.280925 18.7489574,12.8366702 C18.8201759,12.3924154 18.8559984,11.8921272 18.8559984,11.3352323 L18.8559984,4.51334194 C18.8559984,3.82532026 18.792314,3.21712114 18.6652294,2.68831464 C18.5378605,2.15979477 18.3314547,1.6888847 18.046154,1.27601437 C17.7607112,0.863144043 17.3666637,0.547436534 16.8641536,0.328318612 C16.3613592,0.109487307 15.7530874,0 15.0396226,0 C14.4626244,0 13.9554233,0.0736603085 13.517877,0.220551002 C13.0804729,0.367441695 12.7175568,0.569219349 12.4288445,0.825883965 C12.1402744,1.08240527 11.9044429,1.40284195 11.7214923,1.7874806 C11.5382573,2.17226256 11.4096091,2.58513289 11.335121,3.02609158 C11.2607751,3.46719359 11.2235311,3.96303924 11.2235311,4.51334194 L11.2235311,11.3070007 C11.2235311,11.8638955 11.2590693,12.3660467 11.3305721,12.8131677 C11.4017906,13.2605752 11.5260322,13.684337 11.7027281,14.0847395 C11.8797083,14.4849987 12.1092851,14.8181898 12.3917427,15.0841694 C12.6739159,15.3498625 13.0383957,15.5595221 13.485324,15.7127183 C13.9321102,15.8659145 14.450115,15.9425843 15.0396226,15.9425843 C15.6291302,15.9425843 16.1458556,15.8659145 16.5895144,15.7127183 C17.0331733,15.5595221 17.397653,15.3515822 17.683238,15.0887553 Z M12.8197647,14.0940545 C12.6180499,13.7688887 12.4768922,13.4027368 12.3962915,12.996172 C12.3155488,12.5896072 12.2753195,12.1047963 12.2753195,11.5417392 L12.2753195,4.36329847 C12.2753195,3.80024136 12.3155488,3.31700681 12.3962915,2.91359481 C12.4768922,2.5100395 12.6180499,2.14732697 12.8197647,1.82502729 C13.0213373,1.50287092 13.3067801,1.26068042 13.6760931,1.09788254 C14.0452639,0.935084656 14.4998685,0.853829024 15.0396226,0.853829024 C15.5795189,0.853829024 16.0341235,0.935084656 16.4032943,1.09788254 C16.7724651,1.26068042 17.0579078,1.50287092 17.2597648,1.82502729 C17.4611953,2.14732697 17.602353,2.5100395 17.683238,2.91359481 C17.7636964,3.31700681 17.80421,3.80024136 17.80421,4.36329847 L17.80421,11.5417392 C17.80421,12.1047963 17.7622749,12.5896072 17.6785469,12.996172 C17.5948189,13.4027368 17.453519,13.7688887 17.2550738,14.0940545 C17.0563442,14.4193637 16.7724651,14.6649936 16.4032943,14.8306576 C16.0341235,14.996465 15.5795189,15.079297 15.0396226,15.079297 C14.4998685,15.079297 14.0452639,14.996465 13.6760931,14.8306576 C13.3067801,14.6649936 13.0213373,14.4193637 12.8197647,14.0940545 Z M24.2060607,15.7360775 L24.2060607,2.5709454 L29.4465231,15.7360775 L30.2654653,15.7360775 L30.2654653,0.178275144 L29.3441731,0.178275144 L29.3441731,13.3151756 L24.1130928,0.178275144 L23.2846263,0.178275144 L23.2846263,15.7360775 L24.2060607,15.7360775 Z M40.6281191,15.0652528 C41.2516012,14.4867184 41.5636266,13.6341792 41.5636266,12.5082083 C41.5636266,11.7450932 41.360206,11.0208146 40.9537912,10.3359457 C40.5473763,9.6510768 39.9871522,8.9518771 39.2736874,8.23877653 L36.4906201,5.47063933 C36.081078,5.05160676 35.7893804,4.65579008 35.6156697,4.28347592 C35.4418169,3.91144837 35.3551037,3.52193724 35.3551037,3.11537246 C35.3551037,2.35841964 35.5785679,1.79378615 36.0252119,1.42147198 C36.4719981,1.04944443 37.0708878,0.857125107 37.8217388,0.844514004 L37.9148489,0.844514004 C38.7711773,0.844514004 39.3932379,1.10719756 39.7810307,1.63270797 C40.1688235,2.15807507 40.4123312,2.98395903 40.511696,4.10992994 L41.3866464,3.90342312 C41.2996489,2.49599532 40.95834,1.49355591 40.362862,0.896104882 C39.7670997,0.298797166 38.9201534,0 37.8217388,0 L37.7937347,0 C36.7636956,0.0063055517 35.9430476,0.286042754 35.3317906,0.83978484 C34.7206758,1.39338362 34.4150473,2.17699172 34.4150473,3.19046585 C34.4150473,4.26011671 34.8618335,5.24521586 35.7552638,6.14633652 L38.5757172,8.98010878 C39.2768147,9.68088487 39.7871432,10.2936698 40.1068449,10.8191803 C40.4262622,11.3446907 40.586184,11.9263778 40.586184,12.5645283 C40.586184,14.234783 39.7639723,15.0698386 38.1195489,15.0698386 C37.7286287,15.0698386 37.382771,15.0136619 37.0816914,14.9010218 C36.7806118,14.7883817 36.5309915,14.6369052 36.3325462,14.4460189 C36.1338166,14.2551327 35.9630911,14.0080697 35.8203697,13.7046867 C35.6777905,13.4011604 35.5676221,13.0868859 35.4900067,12.7615768 C35.4125334,12.436411 35.3458637,12.051629 35.2899977,11.6073742 L34.3778033,11.8982894 C34.6011253,14.5884671 35.8452465,15.933126 38.110309,15.933126 C39.1650826,15.933126 40.0044948,15.6439305 40.6281191,15.0652528 Z M48.2911493,15.7360775 L48.2911493,1.01333082 L51.4931408,1.01333082 L51.4931408,0.178275144 L43.9817876,0.178275144 L43.9817876,1.01333082 L47.248743,1.01333082 L47.248743,15.7360775 L48.2911493,15.7360775 Z M60.0731987,15.7360775 L60.0731987,14.9104802 L55.7263087,14.9104802 L55.7263087,8.0696731 L59.2541143,8.0696731 L59.2541143,7.25339077 L55.7263087,7.25339077 L55.7263087,1.01333082 L60.0267147,1.01333082 L60.0267147,0.178275144 L54.6839023,0.178275144 L54.6839023,15.7360775 L60.0731987,15.7360775 Z M69.7886309,15.7360775 L69.7886309,14.9104802 L65.1254509,14.9104802 L65.1254509,0.178275144 L64.0830445,0.178275144 L64.0830445,15.7360775 L69.7886309,15.7360775 Z M78.806235,15.7360775 L78.806235,14.9104802 L74.1429128,14.9104802 L74.1429128,0.178275144 L73.1003643,0.178275144 L73.1003643,15.7360775 L78.806235,15.7360775 Z M85.1525039,1.4451178 L87.0139947,10.6596785 L83.3093509,10.6596785 L85.1525039,1.4451178 Z M82.3320505,15.7360775 L83.160517,11.4384141 L87.1628286,11.4384141 L87.963291,15.7360775 L89.0058395,15.7360775 L85.7388842,0.178275144 L84.5473595,0.178275144 L81.3082662,15.7360775 L82.3320505,15.7360775 Z M95.7056425,15.7360775 L95.7056425,1.01333082 L98.9074918,1.01333082 L98.9074918,0.178275144 L91.3961386,0.178275144 L91.3961386,1.01333082 L94.6630939,1.01333082 L94.6630939,15.7360775 L95.7056425,15.7360775 Z M102.135497,15.7360775 L103.168664,15.7360775 L103.168664,0.178275144 L102.135497,0.178275144 L102.135497,15.7360775 Z M114.075763,15.0887553 C114.361063,14.8260717 114.592204,14.4961767 114.769042,14.0987837 C114.946022,13.7013906 115.070121,13.280925 115.141482,12.8366702 C115.212701,12.3924154 115.248381,11.8921272 115.248381,11.3352323 L115.248381,4.51334194 C115.248381,3.82532026 115.184839,3.21712114 115.057754,2.68831464 C114.930385,2.15979477 114.724122,1.6888847 114.438679,1.27601437 C114.153236,0.863144043 113.759331,0.547436534 113.256536,0.328318612 C112.754026,0.109487307 112.145754,0 111.432289,0 C110.855291,0 110.347948,0.0736603085 109.910402,0.220551002 C109.47314,0.367441695 109.109939,0.569219349 108.821511,0.825883965 C108.532941,1.08240527 108.296968,1.40284195 108.114017,1.7874806 C107.930924,2.17226256 107.802276,2.58513289 107.727788,3.02609158 C107.6533,3.46719359 107.616056,3.96303924 107.616056,4.51334194 L107.616056,11.3070007 C107.616056,11.8638955 107.651594,12.3660467 107.723097,12.8131677 C107.794315,13.2605752 107.918557,13.684337 108.095395,14.0847395 C108.272233,14.4849987 108.50181,14.8181898 108.784125,15.0841694 C109.066441,15.3498625 109.431205,15.5595221 109.877849,15.7127183 C110.324777,15.8659145 110.842782,15.9425843 111.432289,15.9425843 C112.021797,15.9425843 112.538238,15.8659145 112.982039,15.7127183 C113.425556,15.5595221 113.79032,15.3515822 114.075763,15.0887553 Z M109.212432,14.0940545 C109.010575,13.7688887 108.869417,13.4027368 108.788816,12.996172 C108.708216,12.5896072 108.667844,12.1047963 108.667844,11.5417392 L108.667844,4.36329847 C108.667844,3.80024136 108.708216,3.31700681 108.788816,2.91359481 C108.869417,2.5100395 109.010575,2.14732697 109.212432,1.82502729 C109.414004,1.50287092 109.699447,1.26068042 110.06876,1.09788254 C110.437789,0.935084656 110.892393,0.853829024 111.432289,0.853829024 C111.972186,0.853829024 112.426648,0.935084656 112.795961,1.09788254 C113.164848,1.26068042 113.450433,1.50287092 113.652147,1.82502729 C113.853862,2.14732697 113.99502,2.5100395 114.075763,2.91359481 C114.156221,3.31700681 114.196735,3.80024136 114.196735,4.36329847 L114.196735,11.5417392 C114.196735,12.1047963 114.1548,12.5896072 114.071072,12.996172 C113.987201,13.4027368 113.846044,13.7688887 113.647598,14.0940545 C113.448869,14.4193637 113.164848,14.6649936 112.795961,14.8306576 C112.426648,14.996465 111.972186,15.079297 111.432289,15.079297 C110.892393,15.079297 110.437789,14.996465 110.06876,14.8306576 C109.699447,14.6649936 109.414004,14.4193637 109.212432,14.0940545 Z M120.598585,15.7360775 L120.598585,2.5709454 L125.839048,15.7360775 L126.658132,15.7360775 L126.658132,0.178275144 L125.736698,0.178275144 L125.736698,13.3151756 L120.505617,0.178275144 L119.677151,0.178275144 L119.677151,15.7360775 L120.598585,15.7360775 Z" id="Fill-1"></path>
                        <path d="M5.19838523,15.7174475 C5.61105476,15.5672607 5.94767256,15.3624736 6.20838077,15.1027995 C6.46894683,14.8432687 6.68146524,14.5179596 6.84593601,14.126872 C7.01026464,13.7359278 7.12526624,13.3197614 7.19037222,12.878946 C7.25562034,12.437844 7.28803118,11.9389889 7.28803118,11.3822374 L7.28803118,10.6126734 L6.30149085,10.6126734 L6.30149085,11.5510542 C6.30149085,12.1204168 6.26424682,12.6068042 6.18975876,13.0102162 C6.11541285,13.4136282 5.98804395,13.7782037 5.80822068,14.1033695 C5.6281131,14.4286787 5.36911072,14.6728755 5.03092924,14.8352435 C4.69260561,14.9980413 4.27225983,15.079297 3.76974973,15.079297 C3.34769811,15.079297 2.97852732,15.0246966 2.66209522,14.915066 C2.34552097,14.805722 2.08495491,14.6523825 1.88011275,14.455334 C1.67541273,14.2581422 1.51094196,14.0049169 1.38684258,13.6952284 C1.26260104,13.3855398 1.17588784,13.0493392 1.12627652,12.6864834 C1.07652305,12.3237709 1.05193062,11.9015855 1.05193062,11.4196407 L1.05193062,4.53225859 C1.05193062,3.9442659 1.08903249,3.44211469 1.1633784,3.02609158 C1.23800861,2.61021179 1.37134793,2.23015899 1.56368064,1.8860765 C1.75601336,1.54213731 2.03534359,1.28403962 2.40138701,1.11192672 C2.76743044,0.939957128 3.22359873,0.853829024 3.76974973,0.853829024 C4.7251586,0.853829024 5.3860269,1.14316786 5.75221248,1.72184554 C6.1182559,2.30066652 6.30149085,3.1841603 6.30149085,4.3727568 L6.30149085,5.17026578 L7.28803118,5.17026578 L7.28803118,4.38207182 C7.28803118,3.69405014 7.22903777,3.09172665 7.11133527,2.57567456 C6.99334845,2.05962248 6.80257942,1.60304321 6.538886,1.20565015 C6.27490827,0.808543698 5.91199221,0.508313452 5.4498535,0.30495941 C4.98743049,0.101605367 4.42749067,0 3.76974973,0 C3.1863547,0 2.67602619,0.0766697764 2.23862207,0.229866021 C1.8010758,0.383348882 1.44114494,0.59272186 1.15868736,0.858558187 C0.876514078,1.12453782 0.648358856,1.45772891 0.474648152,1.85798813 C0.300937448,2.25839067 0.178401746,2.68358548 0.107183201,3.13414581 C0.0356803493,3.58456283 0,4.09115659 0,4.65407039 L0,11.2509672 C0,11.8077188 0.0326951408,12.3064306 0.0978011167,12.7475326 C0.163049245,13.1884913 0.280751752,13.6139727 0.451477248,14.0236903 C0.622060591,14.4334078 0.845382618,14.7743376 1.12158548,15.0464794 C1.39764619,15.318478 1.75914073,15.5360195 2.20592693,15.6986741 C2.65285529,15.8611854 3.17412956,15.9425843 3.76974973,15.9425843 C4.30964601,15.9425843 4.78571569,15.8674909 5.19838523,15.7174475 Z M17.683238,15.0887553 C17.9685386,14.8260717 18.1998212,14.4961767 18.3765171,14.0987837 C18.5534973,13.7013906 18.6775967,13.280925 18.7489574,12.8366702 C18.8201759,12.3924154 18.8559984,11.8921272 18.8559984,11.3352323 L18.8559984,4.51334194 C18.8559984,3.82532026 18.792314,3.21712114 18.6652294,2.68831464 C18.5378605,2.15979477 18.3314547,1.6888847 18.046154,1.27601437 C17.7607112,0.863144043 17.3666637,0.547436534 16.8641536,0.328318612 C16.3613592,0.109487307 15.7530874,0 15.0396226,0 C14.4626244,0 13.9554233,0.0736603085 13.517877,0.220551002 C13.0804729,0.367441695 12.7175568,0.569219349 12.4288445,0.825883965 C12.1402744,1.08240527 11.9044429,1.40284195 11.7214923,1.7874806 C11.5382573,2.17226256 11.4096091,2.58513289 11.335121,3.02609158 C11.2607751,3.46719359 11.2235311,3.96303924 11.2235311,4.51334194 L11.2235311,11.3070007 C11.2235311,11.8638955 11.2590693,12.3660467 11.3305721,12.8131677 C11.4017906,13.2605752 11.5260322,13.684337 11.7027281,14.0847395 C11.8797083,14.4849987 12.1092851,14.8181898 12.3917427,15.0841694 C12.6739159,15.3498625 13.0383957,15.5595221 13.485324,15.7127183 C13.9321102,15.8659145 14.450115,15.9425843 15.0396226,15.9425843 C15.6291302,15.9425843 16.1458556,15.8659145 16.5895144,15.7127183 C17.0331733,15.5595221 17.397653,15.3515822 17.683238,15.0887553 Z M12.8197647,14.0940545 C12.6180499,13.7688887 12.4768922,13.4027368 12.3962915,12.996172 C12.3155488,12.5896072 12.2753195,12.1047963 12.2753195,11.5417392 L12.2753195,4.36329847 C12.2753195,3.80024136 12.3155488,3.31700681 12.3962915,2.91359481 C12.4768922,2.5100395 12.6180499,2.14732697 12.8197647,1.82502729 C13.0213373,1.50287092 13.3067801,1.26068042 13.6760931,1.09788254 C14.0452639,0.935084656 14.4998685,0.853829024 15.0396226,0.853829024 C15.5795189,0.853829024 16.0341235,0.935084656 16.4032943,1.09788254 C16.7724651,1.26068042 17.0579078,1.50287092 17.2597648,1.82502729 C17.4611953,2.14732697 17.602353,2.5100395 17.683238,2.91359481 C17.7636964,3.31700681 17.80421,3.80024136 17.80421,4.36329847 L17.80421,11.5417392 C17.80421,12.1047963 17.7622749,12.5896072 17.6785469,12.996172 C17.5948189,13.4027368 17.453519,13.7688887 17.2550738,14.0940545 C17.0563442,14.4193637 16.7724651,14.6649936 16.4032943,14.8306576 C16.0341235,14.996465 15.5795189,15.079297 15.0396226,15.079297 C14.4998685,15.079297 14.0452639,14.996465 13.6760931,14.8306576 C13.3067801,14.6649936 13.0213373,14.4193637 12.8197647,14.0940545 Z M24.2060607,15.7360775 L24.2060607,2.5709454 L29.4465231,15.7360775 L30.2654653,15.7360775 L30.2654653,0.178275144 L29.3441731,0.178275144 L29.3441731,13.3151756 L24.1130928,0.178275144 L23.2846263,0.178275144 L23.2846263,15.7360775 L24.2060607,15.7360775 Z M40.6281191,15.0652528 C41.2516012,14.4867184 41.5636266,13.6341792 41.5636266,12.5082083 C41.5636266,11.7450932 41.360206,11.0208146 40.9537912,10.3359457 C40.5473763,9.6510768 39.9871522,8.9518771 39.2736874,8.23877653 L36.4906201,5.47063933 C36.081078,5.05160676 35.7893804,4.65579008 35.6156697,4.28347592 C35.4418169,3.91144837 35.3551037,3.52193724 35.3551037,3.11537246 C35.3551037,2.35841964 35.5785679,1.79378615 36.0252119,1.42147198 C36.4719981,1.04944443 37.0708878,0.857125107 37.8217388,0.844514004 L37.9148489,0.844514004 C38.7711773,0.844514004 39.3932379,1.10719756 39.7810307,1.63270797 C40.1688235,2.15807507 40.4123312,2.98395903 40.511696,4.10992994 L41.3866464,3.90342312 C41.2996489,2.49599532 40.95834,1.49355591 40.362862,0.896104882 C39.7670997,0.298797166 38.9201534,0 37.8217388,0 L37.7937347,0 C36.7636956,0.0063055517 35.9430476,0.286042754 35.3317906,0.83978484 C34.7206758,1.39338362 34.4150473,2.17699172 34.4150473,3.19046585 C34.4150473,4.26011671 34.8618335,5.24521586 35.7552638,6.14633652 L38.5757172,8.98010878 C39.2768147,9.68088487 39.7871432,10.2936698 40.1068449,10.8191803 C40.4262622,11.3446907 40.586184,11.9263778 40.586184,12.5645283 C40.586184,14.234783 39.7639723,15.0698386 38.1195489,15.0698386 C37.7286287,15.0698386 37.382771,15.0136619 37.0816914,14.9010218 C36.7806118,14.7883817 36.5309915,14.6369052 36.3325462,14.4460189 C36.1338166,14.2551327 35.9630911,14.0080697 35.8203697,13.7046867 C35.6777905,13.4011604 35.5676221,13.0868859 35.4900067,12.7615768 C35.4125334,12.436411 35.3458637,12.051629 35.2899977,11.6073742 L34.3778033,11.8982894 C34.6011253,14.5884671 35.8452465,15.933126 38.110309,15.933126 C39.1650826,15.933126 40.0044948,15.6439305 40.6281191,15.0652528 Z M48.2911493,15.7360775 L48.2911493,1.01333082 L51.4931408,1.01333082 L51.4931408,0.178275144 L43.9817876,0.178275144 L43.9817876,1.01333082 L47.248743,1.01333082 L47.248743,15.7360775 L48.2911493,15.7360775 Z M60.0731987,15.7360775 L60.0731987,14.9104802 L55.7263087,14.9104802 L55.7263087,8.0696731 L59.2541143,8.0696731 L59.2541143,7.25339077 L55.7263087,7.25339077 L55.7263087,1.01333082 L60.0267147,1.01333082 L60.0267147,0.178275144 L54.6839023,0.178275144 L54.6839023,15.7360775 L60.0731987,15.7360775 Z M69.7886309,15.7360775 L69.7886309,14.9104802 L65.1254509,14.9104802 L65.1254509,0.178275144 L64.0830445,0.178275144 L64.0830445,15.7360775 L69.7886309,15.7360775 Z M78.806235,15.7360775 L78.806235,14.9104802 L74.1429128,14.9104802 L74.1429128,0.178275144 L73.1003643,0.178275144 L73.1003643,15.7360775 L78.806235,15.7360775 Z M85.1525039,1.4451178 L87.0139947,10.6596785 L83.3093509,10.6596785 L85.1525039,1.4451178 Z M82.3320505,15.7360775 L83.160517,11.4384141 L87.1628286,11.4384141 L87.963291,15.7360775 L89.0058395,15.7360775 L85.7388842,0.178275144 L84.5473595,0.178275144 L81.3082662,15.7360775 L82.3320505,15.7360775 Z M95.7056425,15.7360775 L95.7056425,1.01333082 L98.9074918,1.01333082 L98.9074918,0.178275144 L91.3961386,0.178275144 L91.3961386,1.01333082 L94.6630939,1.01333082 L94.6630939,15.7360775 L95.7056425,15.7360775 Z M102.135497,15.7360775 L103.168664,15.7360775 L103.168664,0.178275144 L102.135497,0.178275144 L102.135497,15.7360775 Z M114.075763,15.0887553 C114.361063,14.8260717 114.592204,14.4961767 114.769042,14.0987837 C114.946022,13.7013906 115.070121,13.280925 115.141482,12.8366702 C115.212701,12.3924154 115.248381,11.8921272 115.248381,11.3352323 L115.248381,4.51334194 C115.248381,3.82532026 115.184839,3.21712114 115.057754,2.68831464 C114.930385,2.15979477 114.724122,1.6888847 114.438679,1.27601437 C114.153236,0.863144043 113.759331,0.547436534 113.256536,0.328318612 C112.754026,0.109487307 112.145754,0 111.432289,0 C110.855291,0 110.347948,0.0736603085 109.910402,0.220551002 C109.47314,0.367441695 109.109939,0.569219349 108.821511,0.825883965 C108.532941,1.08240527 108.296968,1.40284195 108.114017,1.7874806 C107.930924,2.17226256 107.802276,2.58513289 107.727788,3.02609158 C107.6533,3.46719359 107.616056,3.96303924 107.616056,4.51334194 L107.616056,11.3070007 C107.616056,11.8638955 107.651594,12.3660467 107.723097,12.8131677 C107.794315,13.2605752 107.918557,13.684337 108.095395,14.0847395 C108.272233,14.4849987 108.50181,14.8181898 108.784125,15.0841694 C109.066441,15.3498625 109.431205,15.5595221 109.877849,15.7127183 C110.324777,15.8659145 110.842782,15.9425843 111.432289,15.9425843 C112.021797,15.9425843 112.538238,15.8659145 112.982039,15.7127183 C113.425556,15.5595221 113.79032,15.3515822 114.075763,15.0887553 Z M109.212432,14.0940545 C109.010575,13.7688887 108.869417,13.4027368 108.788816,12.996172 C108.708216,12.5896072 108.667844,12.1047963 108.667844,11.5417392 L108.667844,4.36329847 C108.667844,3.80024136 108.708216,3.31700681 108.788816,2.91359481 C108.869417,2.5100395 109.010575,2.14732697 109.212432,1.82502729 C109.414004,1.50287092 109.699447,1.26068042 110.06876,1.09788254 C110.437789,0.935084656 110.892393,0.853829024 111.432289,0.853829024 C111.972186,0.853829024 112.426648,0.935084656 112.795961,1.09788254 C113.164848,1.26068042 113.450433,1.50287092 113.652147,1.82502729 C113.853862,2.14732697 113.99502,2.5100395 114.075763,2.91359481 C114.156221,3.31700681 114.196735,3.80024136 114.196735,4.36329847 L114.196735,11.5417392 C114.196735,12.1047963 114.1548,12.5896072 114.071072,12.996172 C113.987201,13.4027368 113.846044,13.7688887 113.647598,14.0940545 C113.448869,14.4193637 113.164848,14.6649936 112.795961,14.8306576 C112.426648,14.996465 111.972186,15.079297 111.432289,15.079297 C110.892393,15.079297 110.437789,14.996465 110.06876,14.8306576 C109.699447,14.6649936 109.414004,14.4193637 109.212432,14.0940545 Z M120.598585,15.7360775 L120.598585,2.5709454 L125.839048,15.7360775 L126.658132,15.7360775 L126.658132,0.178275144 L125.736698,0.178275144 L125.736698,13.3151756 L120.505617,0.178275144 L119.677151,0.178275144 L119.677151,15.7360775 L120.598585,15.7360775 Z" id="Fill-1"></path>
                        <path d="M5.19838523,15.7174475 C5.61105476,15.5672607 5.94767256,15.3624736 6.20838077,15.1027995 C6.46894683,14.8432687 6.68146524,14.5179596 6.84593601,14.126872 C7.01026464,13.7359278 7.12526624,13.3197614 7.19037222,12.878946 C7.25562034,12.437844 7.28803118,11.9389889 7.28803118,11.3822374 L7.28803118,10.6126734 L6.30149085,10.6126734 L6.30149085,11.5510542 C6.30149085,12.1204168 6.26424682,12.6068042 6.18975876,13.0102162 C6.11541285,13.4136282 5.98804395,13.7782037 5.80822068,14.1033695 C5.6281131,14.4286787 5.36911072,14.6728755 5.03092924,14.8352435 C4.69260561,14.9980413 4.27225983,15.079297 3.76974973,15.079297 C3.34769811,15.079297 2.97852732,15.0246966 2.66209522,14.915066 C2.34552097,14.805722 2.08495491,14.6523825 1.88011275,14.455334 C1.67541273,14.2581422 1.51094196,14.0049169 1.38684258,13.6952284 C1.26260104,13.3855398 1.17588784,13.0493392 1.12627652,12.6864834 C1.07652305,12.3237709 1.05193062,11.9015855 1.05193062,11.4196407 L1.05193062,4.53225859 C1.05193062,3.9442659 1.08903249,3.44211469 1.1633784,3.02609158 C1.23800861,2.61021179 1.37134793,2.23015899 1.56368064,1.8860765 C1.75601336,1.54213731 2.03534359,1.28403962 2.40138701,1.11192672 C2.76743044,0.939957128 3.22359873,0.853829024 3.76974973,0.853829024 C4.7251586,0.853829024 5.3860269,1.14316786 5.75221248,1.72184554 C6.1182559,2.30066652 6.30149085,3.1841603 6.30149085,4.3727568 L6.30149085,5.17026578 L7.28803118,5.17026578 L7.28803118,4.38207182 C7.28803118,3.69405014 7.22903777,3.09172665 7.11133527,2.57567456 C6.99334845,2.05962248 6.80257942,1.60304321 6.538886,1.20565015 C6.27490827,0.808543698 5.91199221,0.508313452 5.4498535,0.30495941 C4.98743049,0.101605367 4.42749067,0 3.76974973,0 C3.1863547,0 2.67602619,0.0766697764 2.23862207,0.229866021 C1.8010758,0.383348882 1.44114494,0.59272186 1.15868736,0.858558187 C0.876514078,1.12453782 0.648358856,1.45772891 0.474648152,1.85798813 C0.300937448,2.25839067 0.178401746,2.68358548 0.107183201,3.13414581 C0.0356803493,3.58456283 0,4.09115659 0,4.65407039 L0,11.2509672 C0,11.8077188 0.0326951408,12.3064306 0.0978011167,12.7475326 C0.163049245,13.1884913 0.280751752,13.6139727 0.451477248,14.0236903 C0.622060591,14.4334078 0.845382618,14.7743376 1.12158548,15.0464794 C1.39764619,15.318478 1.75914073,15.5360195 2.20592693,15.6986741 C2.65285529,15.8611854 3.17412956,15.9425843 3.76974973,15.9425843 C4.30964601,15.9425843 4.78571569,15.8674909 5.19838523,15.7174475 Z M17.683238,15.0887553 C17.9685386,14.8260717 18.1998212,14.4961767 18.3765171,14.0987837 C18.5534973,13.7013906 18.6775967,13.280925 18.7489574,12.8366702 C18.8201759,12.3924154 18.8559984,11.8921272 18.8559984,11.3352323 L18.8559984,4.51334194 C18.8559984,3.82532026 18.792314,3.21712114 18.6652294,2.68831464 C18.5378605,2.15979477 18.3314547,1.6888847 18.046154,1.27601437 C17.7607112,0.863144043 17.3666637,0.547436534 16.8641536,0.328318612 C16.3613592,0.109487307 15.7530874,0 15.0396226,0 C14.4626244,0 13.9554233,0.0736603085 13.517877,0.220551002 C13.0804729,0.367441695 12.7175568,0.569219349 12.4288445,0.825883965 C12.1402744,1.08240527 11.9044429,1.40284195 11.7214923,1.7874806 C11.5382573,2.17226256 11.4096091,2.58513289 11.335121,3.02609158 C11.2607751,3.46719359 11.2235311,3.96303924 11.2235311,4.51334194 L11.2235311,11.3070007 C11.2235311,11.8638955 11.2590693,12.3660467 11.3305721,12.8131677 C11.4017906,13.2605752 11.5260322,13.684337 11.7027281,14.0847395 C11.8797083,14.4849987 12.1092851,14.8181898 12.3917427,15.0841694 C12.6739159,15.3498625 13.0383957,15.5595221 13.485324,15.7127183 C13.9321102,15.8659145 14.450115,15.9425843 15.0396226,15.9425843 C15.6291302,15.9425843 16.1458556,15.8659145 16.5895144,15.7127183 C17.0331733,15.5595221 17.397653,15.3515822 17.683238,15.0887553 Z M12.8197647,14.0940545 C12.6180499,13.7688887 12.4768922,13.4027368 12.3962915,12.996172 C12.3155488,12.5896072 12.2753195,12.1047963 12.2753195,11.5417392 L12.2753195,4.36329847 C12.2753195,3.80024136 12.3155488,3.31700681 12.3962915,2.91359481 C12.4768922,2.5100395 12.6180499,2.14732697 12.8197647,1.82502729 C13.0213373,1.50287092 13.3067801,1.26068042 13.6760931,1.09788254 C14.0452639,0.935084656 14.4998685,0.853829024 15.0396226,0.853829024 C15.5795189,0.853829024 16.0341235,0.935084656 16.4032943,1.09788254 C16.7724651,1.26068042 17.0579078,1.50287092 17.2597648,1.82502729 C17.4611953,2.14732697 17.602353,2.5100395 17.683238,2.91359481 C17.7636964,3.31700681 17.80421,3.80024136 17.80421,4.36329847 L17.80421,11.5417392 C17.80421,12.1047963 17.7622749,12.5896072 17.6785469,12.996172 C17.5948189,13.4027368 17.453519,13.7688887 17.2550738,14.0940545 C17.0563442,14.4193637 16.7724651,14.6649936 16.4032943,14.8306576 C16.0341235,14.996465 15.5795189,15.079297 15.0396226,15.079297 C14.4998685,15.079297 14.0452639,14.996465 13.6760931,14.8306576 C13.3067801,14.6649936 13.0213373,14.4193637 12.8197647,14.0940545 Z M24.2060607,15.7360775 L24.2060607,2.5709454 L29.4465231,15.7360775 L30.2654653,15.7360775 L30.2654653,0.178275144 L29.3441731,0.178275144 L29.3441731,13.3151756 L24.1130928,0.178275144 L23.2846263,0.178275144 L23.2846263,15.7360775 L24.2060607,15.7360775 Z M40.6281191,15.0652528 C41.2516012,14.4867184 41.5636266,13.6341792 41.5636266,12.5082083 C41.5636266,11.7450932 41.360206,11.0208146 40.9537912,10.3359457 C40.5473763,9.6510768 39.9871522,8.9518771 39.2736874,8.23877653 L36.4906201,5.47063933 C36.081078,5.05160676 35.7893804,4.65579008 35.6156697,4.28347592 C35.4418169,3.91144837 35.3551037,3.52193724 35.3551037,3.11537246 C35.3551037,2.35841964 35.5785679,1.79378615 36.0252119,1.42147198 C36.4719981,1.04944443 37.0708878,0.857125107 37.8217388,0.844514004 L37.9148489,0.844514004 C38.7711773,0.844514004 39.3932379,1.10719756 39.7810307,1.63270797 C40.1688235,2.15807507 40.4123312,2.98395903 40.511696,4.10992994 L41.3866464,3.90342312 C41.2996489,2.49599532 40.95834,1.49355591 40.362862,0.896104882 C39.7670997,0.298797166 38.9201534,0 37.8217388,0 L37.7937347,0 C36.7636956,0.0063055517 35.9430476,0.286042754 35.3317906,0.83978484 C34.7206758,1.39338362 34.4150473,2.17699172 34.4150473,3.19046585 C34.4150473,4.26011671 34.8618335,5.24521586 35.7552638,6.14633652 L38.5757172,8.98010878 C39.2768147,9.68088487 39.7871432,10.2936698 40.1068449,10.8191803 C40.4262622,11.3446907 40.586184,11.9263778 40.586184,12.5645283 C40.586184,14.234783 39.7639723,15.0698386 38.1195489,15.0698386 C37.7286287,15.0698386 37.382771,15.0136619 37.0816914,14.9010218 C36.7806118,14.7883817 36.5309915,14.6369052 36.3325462,14.4460189 C36.1338166,14.2551327 35.9630911,14.0080697 35.8203697,13.7046867 C35.6777905,13.4011604 35.5676221,13.0868859 35.4900067,12.7615768 C35.4125334,12.436411 35.3458637,12.051629 35.2899977,11.6073742 L34.3778033,11.8982894 C34.6011253,14.5884671 35.8452465,15.933126 38.110309,15.933126 C39.1650826,15.933126 40.0044948,15.6439305 40.6281191,15.0652528 Z M48.2911493,15.7360775 L48.2911493,1.01333082 L51.4931408,1.01333082 L51.4931408,0.178275144 L43.9817876,0.178275144 L43.9817876,1.01333082 L47.248743,1.01333082 L47.248743,15.7360775 L48.2911493,15.7360775 Z M60.0731987,15.7360775 L60.0731987,14.9104802 L55.7263087,14.9104802 L55.7263087,8.0696731 L59.2541143,8.0696731 L59.2541143,7.25339077 L55.7263087,7.25339077 L55.7263087,1.01333082 L60.0267147,1.01333082 L60.0267147,0.178275144 L54.6839023,0.178275144 L54.6839023,15.7360775 L60.0731987,15.7360775 Z M69.7886309,15.7360775 L69.7886309,14.9104802 L65.1254509,14.9104802 L65.1254509,0.178275144 L64.0830445,0.178275144 L64.0830445,15.7360775 L69.7886309,15.7360775 Z M78.806235,15.7360775 L78.806235,14.9104802 L74.1429128,14.9104802 L74.1429128,0.178275144 L73.1003643,0.178275144 L73.1003643,15.7360775 L78.806235,15.7360775 Z M85.1525039,1.4451178 L87.0139947,10.6596785 L83.3093509,10.6596785 L85.1525039,1.4451178 Z M82.3320505,15.7360775 L83.160517,11.4384141 L87.1628286,11.4384141 L87.963291,15.7360775 L89.0058395,15.7360775 L85.7388842,0.178275144 L84.5473595,0.178275144 L81.3082662,15.7360775 L82.3320505,15.7360775 Z M95.7056425,15.7360775 L95.7056425,1.01333082 L98.9074918,1.01333082 L98.9074918,0.178275144 L91.3961386,0.178275144 L91.3961386,1.01333082 L94.6630939,1.01333082 L94.6630939,15.7360775 L95.7056425,15.7360775 Z M102.135497,15.7360775 L103.168664,15.7360775 L103.168664,0.178275144 L102.135497,0.178275144 L102.135497,15.7360775 Z M114.075763,15.0887553 C114.361063,14.8260717 114.592204,14.4961767 114.769042,14.0987837 C114.946022,13.7013906 115.070121,13.280925 115.141482,12.8366702 C115.212701,12.3924154 115.248381,11.8921272 115.248381,11.3352323 L115.248381,4.51334194 C115.248381,3.82532026 115.184839,3.21712114 115.057754,2.68831464 C114.930385,2.15979477 114.724122,1.6888847 114.438679,1.27601437 C114.153236,0.863144043 113.759331,0.547436534 113.256536,0.328318612 C112.754026,0.109487307 112.145754,0 111.432289,0 C110.855291,0 110.347948,0.0736603085 109.910402,0.220551002 C109.47314,0.367441695 109.109939,0.569219349 108.821511,0.825883965 C108.532941,1.08240527 108.296968,1.40284195 108.114017,1.7874806 C107.930924,2.17226256 107.802276,2.58513289 107.727788,3.02609158 C107.6533,3.46719359 107.616056,3.96303924 107.616056,4.51334194 L107.616056,11.3070007 C107.616056,11.8638955 107.651594,12.3660467 107.723097,12.8131677 C107.794315,13.2605752 107.918557,13.684337 108.095395,14.0847395 C108.272233,14.4849987 108.50181,14.8181898 108.784125,15.0841694 C109.066441,15.3498625 109.431205,15.5595221 109.877849,15.7127183 C110.324777,15.8659145 110.842782,15.9425843 111.432289,15.9425843 C112.021797,15.9425843 112.538238,15.8659145 112.982039,15.7127183 C113.425556,15.5595221 113.79032,15.3515822 114.075763,15.0887553 Z M109.212432,14.0940545 C109.010575,13.7688887 108.869417,13.4027368 108.788816,12.996172 C108.708216,12.5896072 108.667844,12.1047963 108.667844,11.5417392 L108.667844,4.36329847 C108.667844,3.80024136 108.708216,3.31700681 108.788816,2.91359481 C108.869417,2.5100395 109.010575,2.14732697 109.212432,1.82502729 C109.414004,1.50287092 109.699447,1.26068042 110.06876,1.09788254 C110.437789,0.935084656 110.892393,0.853829024 111.432289,0.853829024 C111.972186,0.853829024 112.426648,0.935084656 112.795961,1.09788254 C113.164848,1.26068042 113.450433,1.50287092 113.652147,1.82502729 C113.853862,2.14732697 113.99502,2.5100395 114.075763,2.91359481 C114.156221,3.31700681 114.196735,3.80024136 114.196735,4.36329847 L114.196735,11.5417392 C114.196735,12.1047963 114.1548,12.5896072 114.071072,12.996172 C113.987201,13.4027368 113.846044,13.7688887 113.647598,14.0940545 C113.448869,14.4193637 113.164848,14.6649936 112.795961,14.8306576 C112.426648,14.996465 111.972186,15.079297 111.432289,15.079297 C110.892393,15.079297 110.437789,14.996465 110.06876,14.8306576 C109.699447,14.6649936 109.414004,14.4193637 109.212432,14.0940545 Z M120.598585,15.7360775 L120.598585,2.5709454 L125.839048,15.7360775 L126.658132,15.7360775 L126.658132,0.178275144 L125.736698,0.178275144 L125.736698,13.3151756 L120.505617,0.178275144 L119.677151,0.178275144 L119.677151,15.7360775 L120.598585,15.7360775 Z" id="Fill-1"></path>
                    </g>
                    <path d="M17.1243609,0 L0,9.7602912 L0,29.2826711 L17.1243609,39.0430622 L33.6830087,29.6057273 L33.6840163,29.6075248 L33.9234418,29.4686157 L34.0792296,29.3797378 L34.2492257,29.2826711 L34.2492257,29.2794755 L34.2687747,29.268191 L34.2492257,29.2349367 L34.2492257,9.7602912 L17.1243609,0 Z M17.291737,0.87010464 L32.7872794,9.7017716 L12.1722043,9.7017716 L17.291737,0.87010464 Z M1.05564856,9.93315372 L16.2895964,1.25058194 L6.13023865,18.7770039 L1.05564856,9.93315372 Z M23.0937734,10.373349 L33.5713574,10.373349 L33.5713574,28.0888113 L23.0937734,10.373349 Z M11.990116,10.373349 L21.6326332,10.373349 L11.990116,15.8071839 L11.990116,10.373349 Z M0.677565952,10.6326927 L11.0444056,28.6992726 L0.677565952,28.6992726 L0.677565952,10.6326927 Z M17.8190575,13.2947355 L22.4821099,10.6670455 L27.1919188,18.6306051 L17.8190575,13.2947355 Z M6.58278902,19.3445243 L11.3126508,11.184934 L11.3126508,22.037225 L6.58278902,19.3445243 Z M17.266545,13.7547036 L21.3527997,16.0810077 L15.9181645,16.0810077 L17.266545,13.7547036 Z M12.1219209,16.5054247 L16.2337708,14.1883079 L13.4992218,18.9057271 L12.1219209,16.5054247 Z M19.5972146,16.7523854 L22.2739226,16.7523854 L22.2739226,21.4173766 L19.5972146,16.7523854 Z M13.8879859,19.5832962 L15.5288966,16.7523854 L18.8175704,16.7523854 L20.3595267,19.4394938 L18.7116629,22.2822883 L15.4364921,22.2822883 L13.8879859,19.5832962 Z M22.9513878,16.9909576 L27.6453761,19.6631865 L22.9513878,27.7609617 L22.9513878,16.9909576 Z M11.990116,17.6340741 L14.6570494,22.2822883 L11.990116,22.2822883 L11.990116,17.6340741 Z M20.74819,20.1169631 L22.1312347,22.5272518 L18.002355,24.8540552 L20.74819,20.1169631 Z M28.1178786,20.1961543 L33.3400942,29.0262234 L17.8977575,37.8274322 L28.1178786,20.1961543 Z M7.05448537,20.3876912 L16.4434696,25.7325483 L11.6662467,28.4248496 L7.05448537,20.3876912 Z M12.9224242,22.953666 L18.3224958,22.953666 L16.9826807,25.2649907 L12.9224242,22.953666 Z M22.2739226,23.2194009 L22.2739226,28.6992726 L12.5503877,28.6992726 L22.2739226,23.2194009 Z M1.51353965,29.3709499 L22.0181727,29.3709499 L16.9262505,38.155182 L1.51353965,29.3709499 Z" id="Fill-3" fill="#FFFFFF"></path>
                    <path d="M17.1243609,0 L0,9.7602912 L0,29.2826711 L17.1243609,39.0430622 L33.6830087,29.6057273 L33.6840163,29.6075248 L33.9234418,29.4686157 L34.0792296,29.3797378 L34.2492257,29.2826711 L34.2492257,29.2794755 L34.2687747,29.268191 L34.2492257,29.2349367 L34.2492257,9.7602912 L17.1243609,0 Z M17.291737,0.87010464 L32.7872794,9.7017716 L12.1722043,9.7017716 L17.291737,0.87010464 Z M1.05564856,9.93315372 L16.2895964,1.25058194 L6.13023865,18.7770039 L1.05564856,9.93315372 Z M23.0937734,10.373349 L33.5713574,10.373349 L33.5713574,28.0888113 L23.0937734,10.373349 Z M11.990116,10.373349 L21.6326332,10.373349 L11.990116,15.8071839 L11.990116,10.373349 Z M0.677565952,10.6326927 L11.0444056,28.6992726 L0.677565952,28.6992726 L0.677565952,10.6326927 Z M17.8190575,13.2947355 L22.4821099,10.6670455 L27.1919188,18.6306051 L17.8190575,13.2947355 Z M6.58278902,19.3445243 L11.3126508,11.184934 L11.3126508,22.037225 L6.58278902,19.3445243 Z M17.266545,13.7547036 L21.3527997,16.0810077 L15.9181645,16.0810077 L17.266545,13.7547036 Z M12.1219209,16.5054247 L16.2337708,14.1883079 L13.4992218,18.9057271 L12.1219209,16.5054247 Z M19.5972146,16.7523854 L22.2739226,16.7523854 L22.2739226,21.4173766 L19.5972146,16.7523854 Z M13.8879859,19.5832962 L15.5288966,16.7523854 L18.8175704,16.7523854 L20.3595267,19.4394938 L18.7116629,22.2822883 L15.4364921,22.2822883 L13.8879859,19.5832962 Z M22.9513878,16.9909576 L27.6453761,19.6631865 L22.9513878,27.7609617 L22.9513878,16.9909576 Z M11.990116,17.6340741 L14.6570494,22.2822883 L11.990116,22.2822883 L11.990116,17.6340741 Z M20.74819,20.1169631 L22.1312347,22.5272518 L18.002355,24.8540552 L20.74819,20.1169631 Z M28.1178786,20.1961543 L33.3400942,29.0262234 L17.8977575,37.8274322 L28.1178786,20.1961543 Z M7.05448537,20.3876912 L16.4434696,25.7325483 L11.6662467,28.4248496 L7.05448537,20.3876912 Z M12.9224242,22.953666 L18.3224958,22.953666 L16.9826807,25.2649907 L12.9224242,22.953666 Z M22.2739226,23.2194009 L22.2739226,28.6992726 L12.5503877,28.6992726 L22.2739226,23.2194009 Z M1.51353965,29.3709499 L22.0181727,29.3709499 L16.9262505,38.155182 L1.51353965,29.3709499 Z" id="Fill-3" fill="#1559FF"></path>
                </g>
                <g id="Group-3-Copy-5" fill="#FFFFFF">
                    <g id="Group" transform="translate(43.003953, 11.443656)">
                        <path d="M5.19838523,15.7174475 C5.61105476,15.5672607 5.94767256,15.3624736 6.20838077,15.1027995 C6.46894683,14.8432687 6.68146524,14.5179596 6.84593601,14.126872 C7.01026464,13.7359278 7.12526624,13.3197614 7.19037222,12.878946 C7.25562034,12.437844 7.28803118,11.9389889 7.28803118,11.3822374 L7.28803118,10.6126734 L6.30149085,10.6126734 L6.30149085,11.5510542 C6.30149085,12.1204168 6.26424682,12.6068042 6.18975876,13.0102162 C6.11541285,13.4136282 5.98804395,13.7782037 5.80822068,14.1033695 C5.6281131,14.4286787 5.36911072,14.6728755 5.03092924,14.8352435 C4.69260561,14.9980413 4.27225983,15.079297 3.76974973,15.079297 C3.34769811,15.079297 2.97852732,15.0246966 2.66209522,14.915066 C2.34552097,14.805722 2.08495491,14.6523825 1.88011275,14.455334 C1.67541273,14.2581422 1.51094196,14.0049169 1.38684258,13.6952284 C1.26260104,13.3855398 1.17588784,13.0493392 1.12627652,12.6864834 C1.07652305,12.3237709 1.05193062,11.9015855 1.05193062,11.4196407 L1.05193062,4.53225859 C1.05193062,3.9442659 1.08903249,3.44211469 1.1633784,3.02609158 C1.23800861,2.61021179 1.37134793,2.23015899 1.56368064,1.8860765 C1.75601336,1.54213731 2.03534359,1.28403962 2.40138701,1.11192672 C2.76743044,0.939957128 3.22359873,0.853829024 3.76974973,0.853829024 C4.7251586,0.853829024 5.3860269,1.14316786 5.75221248,1.72184554 C6.1182559,2.30066652 6.30149085,3.1841603 6.30149085,4.3727568 L6.30149085,5.17026578 L7.28803118,5.17026578 L7.28803118,4.38207182 C7.28803118,3.69405014 7.22903777,3.09172665 7.11133527,2.57567456 C6.99334845,2.05962248 6.80257942,1.60304321 6.538886,1.20565015 C6.27490827,0.808543698 5.91199221,0.508313452 5.4498535,0.30495941 C4.98743049,0.101605367 4.42749067,0 3.76974973,0 C3.1863547,0 2.67602619,0.0766697764 2.23862207,0.229866021 C1.8010758,0.383348882 1.44114494,0.59272186 1.15868736,0.858558187 C0.876514078,1.12453782 0.648358856,1.45772891 0.474648152,1.85798813 C0.300937448,2.25839067 0.178401746,2.68358548 0.107183201,3.13414581 C0.0356803493,3.58456283 0,4.09115659 0,4.65407039 L0,11.2509672 C0,11.8077188 0.0326951408,12.3064306 0.0978011167,12.7475326 C0.163049245,13.1884913 0.280751752,13.6139727 0.451477248,14.0236903 C0.622060591,14.4334078 0.845382618,14.7743376 1.12158548,15.0464794 C1.39764619,15.318478 1.75914073,15.5360195 2.20592693,15.6986741 C2.65285529,15.8611854 3.17412956,15.9425843 3.76974973,15.9425843 C4.30964601,15.9425843 4.78571569,15.8674909 5.19838523,15.7174475 Z M17.683238,15.0887553 C17.9685386,14.8260717 18.1998212,14.4961767 18.3765171,14.0987837 C18.5534973,13.7013906 18.6775967,13.280925 18.7489574,12.8366702 C18.8201759,12.3924154 18.8559984,11.8921272 18.8559984,11.3352323 L18.8559984,4.51334194 C18.8559984,3.82532026 18.792314,3.21712114 18.6652294,2.68831464 C18.5378605,2.15979477 18.3314547,1.6888847 18.046154,1.27601437 C17.7607112,0.863144043 17.3666637,0.547436534 16.8641536,0.328318612 C16.3613592,0.109487307 15.7530874,0 15.0396226,0 C14.4626244,0 13.9554233,0.0736603085 13.517877,0.220551002 C13.0804729,0.367441695 12.7175568,0.569219349 12.4288445,0.825883965 C12.1402744,1.08240527 11.9044429,1.40284195 11.7214923,1.7874806 C11.5382573,2.17226256 11.4096091,2.58513289 11.335121,3.02609158 C11.2607751,3.46719359 11.2235311,3.96303924 11.2235311,4.51334194 L11.2235311,11.3070007 C11.2235311,11.8638955 11.2590693,12.3660467 11.3305721,12.8131677 C11.4017906,13.2605752 11.5260322,13.684337 11.7027281,14.0847395 C11.8797083,14.4849987 12.1092851,14.8181898 12.3917427,15.0841694 C12.6739159,15.3498625 13.0383957,15.5595221 13.485324,15.7127183 C13.9321102,15.8659145 14.450115,15.9425843 15.0396226,15.9425843 C15.6291302,15.9425843 16.1458556,15.8659145 16.5895144,15.7127183 C17.0331733,15.5595221 17.397653,15.3515822 17.683238,15.0887553 Z M12.8197647,14.0940545 C12.6180499,13.7688887 12.4768922,13.4027368 12.3962915,12.996172 C12.3155488,12.5896072 12.2753195,12.1047963 12.2753195,11.5417392 L12.2753195,4.36329847 C12.2753195,3.80024136 12.3155488,3.31700681 12.3962915,2.91359481 C12.4768922,2.5100395 12.6180499,2.14732697 12.8197647,1.82502729 C13.0213373,1.50287092 13.3067801,1.26068042 13.6760931,1.09788254 C14.0452639,0.935084656 14.4998685,0.853829024 15.0396226,0.853829024 C15.5795189,0.853829024 16.0341235,0.935084656 16.4032943,1.09788254 C16.7724651,1.26068042 17.0579078,1.50287092 17.2597648,1.82502729 C17.4611953,2.14732697 17.602353,2.5100395 17.683238,2.91359481 C17.7636964,3.31700681 17.80421,3.80024136 17.80421,4.36329847 L17.80421,11.5417392 C17.80421,12.1047963 17.7622749,12.5896072 17.6785469,12.996172 C17.5948189,13.4027368 17.453519,13.7688887 17.2550738,14.0940545 C17.0563442,14.4193637 16.7724651,14.6649936 16.4032943,14.8306576 C16.0341235,14.996465 15.5795189,15.079297 15.0396226,15.079297 C14.4998685,15.079297 14.0452639,14.996465 13.6760931,14.8306576 C13.3067801,14.6649936 13.0213373,14.4193637 12.8197647,14.0940545 Z M24.2060607,15.7360775 L24.2060607,2.5709454 L29.4465231,15.7360775 L30.2654653,15.7360775 L30.2654653,0.178275144 L29.3441731,0.178275144 L29.3441731,13.3151756 L24.1130928,0.178275144 L23.2846263,0.178275144 L23.2846263,15.7360775 L24.2060607,15.7360775 Z M40.6281191,15.0652528 C41.2516012,14.4867184 41.5636266,13.6341792 41.5636266,12.5082083 C41.5636266,11.7450932 41.360206,11.0208146 40.9537912,10.3359457 C40.5473763,9.6510768 39.9871522,8.9518771 39.2736874,8.23877653 L36.4906201,5.47063933 C36.081078,5.05160676 35.7893804,4.65579008 35.6156697,4.28347592 C35.4418169,3.91144837 35.3551037,3.52193724 35.3551037,3.11537246 C35.3551037,2.35841964 35.5785679,1.79378615 36.0252119,1.42147198 C36.4719981,1.04944443 37.0708878,0.857125107 37.8217388,0.844514004 L37.9148489,0.844514004 C38.7711773,0.844514004 39.3932379,1.10719756 39.7810307,1.63270797 C40.1688235,2.15807507 40.4123312,2.98395903 40.511696,4.10992994 L41.3866464,3.90342312 C41.2996489,2.49599532 40.95834,1.49355591 40.362862,0.896104882 C39.7670997,0.298797166 38.9201534,0 37.8217388,0 L37.7937347,0 C36.7636956,0.0063055517 35.9430476,0.286042754 35.3317906,0.83978484 C34.7206758,1.39338362 34.4150473,2.17699172 34.4150473,3.19046585 C34.4150473,4.26011671 34.8618335,5.24521586 35.7552638,6.14633652 L38.5757172,8.98010878 C39.2768147,9.68088487 39.7871432,10.2936698 40.1068449,10.8191803 C40.4262622,11.3446907 40.586184,11.9263778 40.586184,12.5645283 C40.586184,14.234783 39.7639723,15.0698386 38.1195489,15.0698386 C37.7286287,15.0698386 37.382771,15.0136619 37.0816914,14.9010218 C36.7806118,14.7883817 36.5309915,14.6369052 36.3325462,14.4460189 C36.1338166,14.2551327 35.9630911,14.0080697 35.8203697,13.7046867 C35.6777905,13.4011604 35.5676221,13.0868859 35.4900067,12.7615768 C35.4125334,12.436411 35.3458637,12.051629 35.2899977,11.6073742 L34.3778033,11.8982894 C34.6011253,14.5884671 35.8452465,15.933126 38.110309,15.933126 C39.1650826,15.933126 40.0044948,15.6439305 40.6281191,15.0652528 Z M48.2911493,15.7360775 L48.2911493,1.01333082 L51.4931408,1.01333082 L51.4931408,0.178275144 L43.9817876,0.178275144 L43.9817876,1.01333082 L47.248743,1.01333082 L47.248743,15.7360775 L48.2911493,15.7360775 Z M60.0731987,15.7360775 L60.0731987,14.9104802 L55.7263087,14.9104802 L55.7263087,8.0696731 L59.2541143,8.0696731 L59.2541143,7.25339077 L55.7263087,7.25339077 L55.7263087,1.01333082 L60.0267147,1.01333082 L60.0267147,0.178275144 L54.6839023,0.178275144 L54.6839023,15.7360775 L60.0731987,15.7360775 Z M69.7886309,15.7360775 L69.7886309,14.9104802 L65.1254509,14.9104802 L65.1254509,0.178275144 L64.0830445,0.178275144 L64.0830445,15.7360775 L69.7886309,15.7360775 Z M78.806235,15.7360775 L78.806235,14.9104802 L74.1429128,14.9104802 L74.1429128,0.178275144 L73.1003643,0.178275144 L73.1003643,15.7360775 L78.806235,15.7360775 Z M85.1525039,1.4451178 L87.0139947,10.6596785 L83.3093509,10.6596785 L85.1525039,1.4451178 Z M82.3320505,15.7360775 L83.160517,11.4384141 L87.1628286,11.4384141 L87.963291,15.7360775 L89.0058395,15.7360775 L85.7388842,0.178275144 L84.5473595,0.178275144 L81.3082662,15.7360775 L82.3320505,15.7360775 Z M95.7056425,15.7360775 L95.7056425,1.01333082 L98.9074918,1.01333082 L98.9074918,0.178275144 L91.3961386,0.178275144 L91.3961386,1.01333082 L94.6630939,1.01333082 L94.6630939,15.7360775 L95.7056425,15.7360775 Z M102.135497,15.7360775 L103.168664,15.7360775 L103.168664,0.178275144 L102.135497,0.178275144 L102.135497,15.7360775 Z M114.075763,15.0887553 C114.361063,14.8260717 114.592204,14.4961767 114.769042,14.0987837 C114.946022,13.7013906 115.070121,13.280925 115.141482,12.8366702 C115.212701,12.3924154 115.248381,11.8921272 115.248381,11.3352323 L115.248381,4.51334194 C115.248381,3.82532026 115.184839,3.21712114 115.057754,2.68831464 C114.930385,2.15979477 114.724122,1.6888847 114.438679,1.27601437 C114.153236,0.863144043 113.759331,0.547436534 113.256536,0.328318612 C112.754026,0.109487307 112.145754,0 111.432289,0 C110.855291,0 110.347948,0.0736603085 109.910402,0.220551002 C109.47314,0.367441695 109.109939,0.569219349 108.821511,0.825883965 C108.532941,1.08240527 108.296968,1.40284195 108.114017,1.7874806 C107.930924,2.17226256 107.802276,2.58513289 107.727788,3.02609158 C107.6533,3.46719359 107.616056,3.96303924 107.616056,4.51334194 L107.616056,11.3070007 C107.616056,11.8638955 107.651594,12.3660467 107.723097,12.8131677 C107.794315,13.2605752 107.918557,13.684337 108.095395,14.0847395 C108.272233,14.4849987 108.50181,14.8181898 108.784125,15.0841694 C109.066441,15.3498625 109.431205,15.5595221 109.877849,15.7127183 C110.324777,15.8659145 110.842782,15.9425843 111.432289,15.9425843 C112.021797,15.9425843 112.538238,15.8659145 112.982039,15.7127183 C113.425556,15.5595221 113.79032,15.3515822 114.075763,15.0887553 Z M109.212432,14.0940545 C109.010575,13.7688887 108.869417,13.4027368 108.788816,12.996172 C108.708216,12.5896072 108.667844,12.1047963 108.667844,11.5417392 L108.667844,4.36329847 C108.667844,3.80024136 108.708216,3.31700681 108.788816,2.91359481 C108.869417,2.5100395 109.010575,2.14732697 109.212432,1.82502729 C109.414004,1.50287092 109.699447,1.26068042 110.06876,1.09788254 C110.437789,0.935084656 110.892393,0.853829024 111.432289,0.853829024 C111.972186,0.853829024 112.426648,0.935084656 112.795961,1.09788254 C113.164848,1.26068042 113.450433,1.50287092 113.652147,1.82502729 C113.853862,2.14732697 113.99502,2.5100395 114.075763,2.91359481 C114.156221,3.31700681 114.196735,3.80024136 114.196735,4.36329847 L114.196735,11.5417392 C114.196735,12.1047963 114.1548,12.5896072 114.071072,12.996172 C113.987201,13.4027368 113.846044,13.7688887 113.647598,14.0940545 C113.448869,14.4193637 113.164848,14.6649936 112.795961,14.8306576 C112.426648,14.996465 111.972186,15.079297 111.432289,15.079297 C110.892393,15.079297 110.437789,14.996465 110.06876,14.8306576 C109.699447,14.6649936 109.414004,14.4193637 109.212432,14.0940545 Z M120.598585,15.7360775 L120.598585,2.5709454 L125.839048,15.7360775 L126.658132,15.7360775 L126.658132,0.178275144 L125.736698,0.178275144 L125.736698,13.3151756 L120.505617,0.178275144 L119.677151,0.178275144 L119.677151,15.7360775 L120.598585,15.7360775 Z" id="Fill-1"></path>
                        <path d="M5.19838523,15.7174475 C5.61105476,15.5672607 5.94767256,15.3624736 6.20838077,15.1027995 C6.46894683,14.8432687 6.68146524,14.5179596 6.84593601,14.126872 C7.01026464,13.7359278 7.12526624,13.3197614 7.19037222,12.878946 C7.25562034,12.437844 7.28803118,11.9389889 7.28803118,11.3822374 L7.28803118,10.6126734 L6.30149085,10.6126734 L6.30149085,11.5510542 C6.30149085,12.1204168 6.26424682,12.6068042 6.18975876,13.0102162 C6.11541285,13.4136282 5.98804395,13.7782037 5.80822068,14.1033695 C5.6281131,14.4286787 5.36911072,14.6728755 5.03092924,14.8352435 C4.69260561,14.9980413 4.27225983,15.079297 3.76974973,15.079297 C3.34769811,15.079297 2.97852732,15.0246966 2.66209522,14.915066 C2.34552097,14.805722 2.08495491,14.6523825 1.88011275,14.455334 C1.67541273,14.2581422 1.51094196,14.0049169 1.38684258,13.6952284 C1.26260104,13.3855398 1.17588784,13.0493392 1.12627652,12.6864834 C1.07652305,12.3237709 1.05193062,11.9015855 1.05193062,11.4196407 L1.05193062,4.53225859 C1.05193062,3.9442659 1.08903249,3.44211469 1.1633784,3.02609158 C1.23800861,2.61021179 1.37134793,2.23015899 1.56368064,1.8860765 C1.75601336,1.54213731 2.03534359,1.28403962 2.40138701,1.11192672 C2.76743044,0.939957128 3.22359873,0.853829024 3.76974973,0.853829024 C4.7251586,0.853829024 5.3860269,1.14316786 5.75221248,1.72184554 C6.1182559,2.30066652 6.30149085,3.1841603 6.30149085,4.3727568 L6.30149085,5.17026578 L7.28803118,5.17026578 L7.28803118,4.38207182 C7.28803118,3.69405014 7.22903777,3.09172665 7.11133527,2.57567456 C6.99334845,2.05962248 6.80257942,1.60304321 6.538886,1.20565015 C6.27490827,0.808543698 5.91199221,0.508313452 5.4498535,0.30495941 C4.98743049,0.101605367 4.42749067,0 3.76974973,0 C3.1863547,0 2.67602619,0.0766697764 2.23862207,0.229866021 C1.8010758,0.383348882 1.44114494,0.59272186 1.15868736,0.858558187 C0.876514078,1.12453782 0.648358856,1.45772891 0.474648152,1.85798813 C0.300937448,2.25839067 0.178401746,2.68358548 0.107183201,3.13414581 C0.0356803493,3.58456283 0,4.09115659 0,4.65407039 L0,11.2509672 C0,11.8077188 0.0326951408,12.3064306 0.0978011167,12.7475326 C0.163049245,13.1884913 0.280751752,13.6139727 0.451477248,14.0236903 C0.622060591,14.4334078 0.845382618,14.7743376 1.12158548,15.0464794 C1.39764619,15.318478 1.75914073,15.5360195 2.20592693,15.6986741 C2.65285529,15.8611854 3.17412956,15.9425843 3.76974973,15.9425843 C4.30964601,15.9425843 4.78571569,15.8674909 5.19838523,15.7174475 Z M17.683238,15.0887553 C17.9685386,14.8260717 18.1998212,14.4961767 18.3765171,14.0987837 C18.5534973,13.7013906 18.6775967,13.280925 18.7489574,12.8366702 C18.8201759,12.3924154 18.8559984,11.8921272 18.8559984,11.3352323 L18.8559984,4.51334194 C18.8559984,3.82532026 18.792314,3.21712114 18.6652294,2.68831464 C18.5378605,2.15979477 18.3314547,1.6888847 18.046154,1.27601437 C17.7607112,0.863144043 17.3666637,0.547436534 16.8641536,0.328318612 C16.3613592,0.109487307 15.7530874,0 15.0396226,0 C14.4626244,0 13.9554233,0.0736603085 13.517877,0.220551002 C13.0804729,0.367441695 12.7175568,0.569219349 12.4288445,0.825883965 C12.1402744,1.08240527 11.9044429,1.40284195 11.7214923,1.7874806 C11.5382573,2.17226256 11.4096091,2.58513289 11.335121,3.02609158 C11.2607751,3.46719359 11.2235311,3.96303924 11.2235311,4.51334194 L11.2235311,11.3070007 C11.2235311,11.8638955 11.2590693,12.3660467 11.3305721,12.8131677 C11.4017906,13.2605752 11.5260322,13.684337 11.7027281,14.0847395 C11.8797083,14.4849987 12.1092851,14.8181898 12.3917427,15.0841694 C12.6739159,15.3498625 13.0383957,15.5595221 13.485324,15.7127183 C13.9321102,15.8659145 14.450115,15.9425843 15.0396226,15.9425843 C15.6291302,15.9425843 16.1458556,15.8659145 16.5895144,15.7127183 C17.0331733,15.5595221 17.397653,15.3515822 17.683238,15.0887553 Z M12.8197647,14.0940545 C12.6180499,13.7688887 12.4768922,13.4027368 12.3962915,12.996172 C12.3155488,12.5896072 12.2753195,12.1047963 12.2753195,11.5417392 L12.2753195,4.36329847 C12.2753195,3.80024136 12.3155488,3.31700681 12.3962915,2.91359481 C12.4768922,2.5100395 12.6180499,2.14732697 12.8197647,1.82502729 C13.0213373,1.50287092 13.3067801,1.26068042 13.6760931,1.09788254 C14.0452639,0.935084656 14.4998685,0.853829024 15.0396226,0.853829024 C15.5795189,0.853829024 16.0341235,0.935084656 16.4032943,1.09788254 C16.7724651,1.26068042 17.0579078,1.50287092 17.2597648,1.82502729 C17.4611953,2.14732697 17.602353,2.5100395 17.683238,2.91359481 C17.7636964,3.31700681 17.80421,3.80024136 17.80421,4.36329847 L17.80421,11.5417392 C17.80421,12.1047963 17.7622749,12.5896072 17.6785469,12.996172 C17.5948189,13.4027368 17.453519,13.7688887 17.2550738,14.0940545 C17.0563442,14.4193637 16.7724651,14.6649936 16.4032943,14.8306576 C16.0341235,14.996465 15.5795189,15.079297 15.0396226,15.079297 C14.4998685,15.079297 14.0452639,14.996465 13.6760931,14.8306576 C13.3067801,14.6649936 13.0213373,14.4193637 12.8197647,14.0940545 Z M24.2060607,15.7360775 L24.2060607,2.5709454 L29.4465231,15.7360775 L30.2654653,15.7360775 L30.2654653,0.178275144 L29.3441731,0.178275144 L29.3441731,13.3151756 L24.1130928,0.178275144 L23.2846263,0.178275144 L23.2846263,15.7360775 L24.2060607,15.7360775 Z M40.6281191,15.0652528 C41.2516012,14.4867184 41.5636266,13.6341792 41.5636266,12.5082083 C41.5636266,11.7450932 41.360206,11.0208146 40.9537912,10.3359457 C40.5473763,9.6510768 39.9871522,8.9518771 39.2736874,8.23877653 L36.4906201,5.47063933 C36.081078,5.05160676 35.7893804,4.65579008 35.6156697,4.28347592 C35.4418169,3.91144837 35.3551037,3.52193724 35.3551037,3.11537246 C35.3551037,2.35841964 35.5785679,1.79378615 36.0252119,1.42147198 C36.4719981,1.04944443 37.0708878,0.857125107 37.8217388,0.844514004 L37.9148489,0.844514004 C38.7711773,0.844514004 39.3932379,1.10719756 39.7810307,1.63270797 C40.1688235,2.15807507 40.4123312,2.98395903 40.511696,4.10992994 L41.3866464,3.90342312 C41.2996489,2.49599532 40.95834,1.49355591 40.362862,0.896104882 C39.7670997,0.298797166 38.9201534,0 37.8217388,0 L37.7937347,0 C36.7636956,0.0063055517 35.9430476,0.286042754 35.3317906,0.83978484 C34.7206758,1.39338362 34.4150473,2.17699172 34.4150473,3.19046585 C34.4150473,4.26011671 34.8618335,5.24521586 35.7552638,6.14633652 L38.5757172,8.98010878 C39.2768147,9.68088487 39.7871432,10.2936698 40.1068449,10.8191803 C40.4262622,11.3446907 40.586184,11.9263778 40.586184,12.5645283 C40.586184,14.234783 39.7639723,15.0698386 38.1195489,15.0698386 C37.7286287,15.0698386 37.382771,15.0136619 37.0816914,14.9010218 C36.7806118,14.7883817 36.5309915,14.6369052 36.3325462,14.4460189 C36.1338166,14.2551327 35.9630911,14.0080697 35.8203697,13.7046867 C35.6777905,13.4011604 35.5676221,13.0868859 35.4900067,12.7615768 C35.4125334,12.436411 35.3458637,12.051629 35.2899977,11.6073742 L34.3778033,11.8982894 C34.6011253,14.5884671 35.8452465,15.933126 38.110309,15.933126 C39.1650826,15.933126 40.0044948,15.6439305 40.6281191,15.0652528 Z M48.2911493,15.7360775 L48.2911493,1.01333082 L51.4931408,1.01333082 L51.4931408,0.178275144 L43.9817876,0.178275144 L43.9817876,1.01333082 L47.248743,1.01333082 L47.248743,15.7360775 L48.2911493,15.7360775 Z M60.0731987,15.7360775 L60.0731987,14.9104802 L55.7263087,14.9104802 L55.7263087,8.0696731 L59.2541143,8.0696731 L59.2541143,7.25339077 L55.7263087,7.25339077 L55.7263087,1.01333082 L60.0267147,1.01333082 L60.0267147,0.178275144 L54.6839023,0.178275144 L54.6839023,15.7360775 L60.0731987,15.7360775 Z M69.7886309,15.7360775 L69.7886309,14.9104802 L65.1254509,14.9104802 L65.1254509,0.178275144 L64.0830445,0.178275144 L64.0830445,15.7360775 L69.7886309,15.7360775 Z M78.806235,15.7360775 L78.806235,14.9104802 L74.1429128,14.9104802 L74.1429128,0.178275144 L73.1003643,0.178275144 L73.1003643,15.7360775 L78.806235,15.7360775 Z M85.1525039,1.4451178 L87.0139947,10.6596785 L83.3093509,10.6596785 L85.1525039,1.4451178 Z M82.3320505,15.7360775 L83.160517,11.4384141 L87.1628286,11.4384141 L87.963291,15.7360775 L89.0058395,15.7360775 L85.7388842,0.178275144 L84.5473595,0.178275144 L81.3082662,15.7360775 L82.3320505,15.7360775 Z M95.7056425,15.7360775 L95.7056425,1.01333082 L98.9074918,1.01333082 L98.9074918,0.178275144 L91.3961386,0.178275144 L91.3961386,1.01333082 L94.6630939,1.01333082 L94.6630939,15.7360775 L95.7056425,15.7360775 Z M102.135497,15.7360775 L103.168664,15.7360775 L103.168664,0.178275144 L102.135497,0.178275144 L102.135497,15.7360775 Z M114.075763,15.0887553 C114.361063,14.8260717 114.592204,14.4961767 114.769042,14.0987837 C114.946022,13.7013906 115.070121,13.280925 115.141482,12.8366702 C115.212701,12.3924154 115.248381,11.8921272 115.248381,11.3352323 L115.248381,4.51334194 C115.248381,3.82532026 115.184839,3.21712114 115.057754,2.68831464 C114.930385,2.15979477 114.724122,1.6888847 114.438679,1.27601437 C114.153236,0.863144043 113.759331,0.547436534 113.256536,0.328318612 C112.754026,0.109487307 112.145754,0 111.432289,0 C110.855291,0 110.347948,0.0736603085 109.910402,0.220551002 C109.47314,0.367441695 109.109939,0.569219349 108.821511,0.825883965 C108.532941,1.08240527 108.296968,1.40284195 108.114017,1.7874806 C107.930924,2.17226256 107.802276,2.58513289 107.727788,3.02609158 C107.6533,3.46719359 107.616056,3.96303924 107.616056,4.51334194 L107.616056,11.3070007 C107.616056,11.8638955 107.651594,12.3660467 107.723097,12.8131677 C107.794315,13.2605752 107.918557,13.684337 108.095395,14.0847395 C108.272233,14.4849987 108.50181,14.8181898 108.784125,15.0841694 C109.066441,15.3498625 109.431205,15.5595221 109.877849,15.7127183 C110.324777,15.8659145 110.842782,15.9425843 111.432289,15.9425843 C112.021797,15.9425843 112.538238,15.8659145 112.982039,15.7127183 C113.425556,15.5595221 113.79032,15.3515822 114.075763,15.0887553 Z M109.212432,14.0940545 C109.010575,13.7688887 108.869417,13.4027368 108.788816,12.996172 C108.708216,12.5896072 108.667844,12.1047963 108.667844,11.5417392 L108.667844,4.36329847 C108.667844,3.80024136 108.708216,3.31700681 108.788816,2.91359481 C108.869417,2.5100395 109.010575,2.14732697 109.212432,1.82502729 C109.414004,1.50287092 109.699447,1.26068042 110.06876,1.09788254 C110.437789,0.935084656 110.892393,0.853829024 111.432289,0.853829024 C111.972186,0.853829024 112.426648,0.935084656 112.795961,1.09788254 C113.164848,1.26068042 113.450433,1.50287092 113.652147,1.82502729 C113.853862,2.14732697 113.99502,2.5100395 114.075763,2.91359481 C114.156221,3.31700681 114.196735,3.80024136 114.196735,4.36329847 L114.196735,11.5417392 C114.196735,12.1047963 114.1548,12.5896072 114.071072,12.996172 C113.987201,13.4027368 113.846044,13.7688887 113.647598,14.0940545 C113.448869,14.4193637 113.164848,14.6649936 112.795961,14.8306576 C112.426648,14.996465 111.972186,15.079297 111.432289,15.079297 C110.892393,15.079297 110.437789,14.996465 110.06876,14.8306576 C109.699447,14.6649936 109.414004,14.4193637 109.212432,14.0940545 Z M120.598585,15.7360775 L120.598585,2.5709454 L125.839048,15.7360775 L126.658132,15.7360775 L126.658132,0.178275144 L125.736698,0.178275144 L125.736698,13.3151756 L120.505617,0.178275144 L119.677151,0.178275144 L119.677151,15.7360775 L120.598585,15.7360775 Z" id="Fill-1"></path>
                        <path d="M5.19838523,15.7174475 C5.61105476,15.5672607 5.94767256,15.3624736 6.20838077,15.1027995 C6.46894683,14.8432687 6.68146524,14.5179596 6.84593601,14.126872 C7.01026464,13.7359278 7.12526624,13.3197614 7.19037222,12.878946 C7.25562034,12.437844 7.28803118,11.9389889 7.28803118,11.3822374 L7.28803118,10.6126734 L6.30149085,10.6126734 L6.30149085,11.5510542 C6.30149085,12.1204168 6.26424682,12.6068042 6.18975876,13.0102162 C6.11541285,13.4136282 5.98804395,13.7782037 5.80822068,14.1033695 C5.6281131,14.4286787 5.36911072,14.6728755 5.03092924,14.8352435 C4.69260561,14.9980413 4.27225983,15.079297 3.76974973,15.079297 C3.34769811,15.079297 2.97852732,15.0246966 2.66209522,14.915066 C2.34552097,14.805722 2.08495491,14.6523825 1.88011275,14.455334 C1.67541273,14.2581422 1.51094196,14.0049169 1.38684258,13.6952284 C1.26260104,13.3855398 1.17588784,13.0493392 1.12627652,12.6864834 C1.07652305,12.3237709 1.05193062,11.9015855 1.05193062,11.4196407 L1.05193062,4.53225859 C1.05193062,3.9442659 1.08903249,3.44211469 1.1633784,3.02609158 C1.23800861,2.61021179 1.37134793,2.23015899 1.56368064,1.8860765 C1.75601336,1.54213731 2.03534359,1.28403962 2.40138701,1.11192672 C2.76743044,0.939957128 3.22359873,0.853829024 3.76974973,0.853829024 C4.7251586,0.853829024 5.3860269,1.14316786 5.75221248,1.72184554 C6.1182559,2.30066652 6.30149085,3.1841603 6.30149085,4.3727568 L6.30149085,5.17026578 L7.28803118,5.17026578 L7.28803118,4.38207182 C7.28803118,3.69405014 7.22903777,3.09172665 7.11133527,2.57567456 C6.99334845,2.05962248 6.80257942,1.60304321 6.538886,1.20565015 C6.27490827,0.808543698 5.91199221,0.508313452 5.4498535,0.30495941 C4.98743049,0.101605367 4.42749067,0 3.76974973,0 C3.1863547,0 2.67602619,0.0766697764 2.23862207,0.229866021 C1.8010758,0.383348882 1.44114494,0.59272186 1.15868736,0.858558187 C0.876514078,1.12453782 0.648358856,1.45772891 0.474648152,1.85798813 C0.300937448,2.25839067 0.178401746,2.68358548 0.107183201,3.13414581 C0.0356803493,3.58456283 0,4.09115659 0,4.65407039 L0,11.2509672 C0,11.8077188 0.0326951408,12.3064306 0.0978011167,12.7475326 C0.163049245,13.1884913 0.280751752,13.6139727 0.451477248,14.0236903 C0.622060591,14.4334078 0.845382618,14.7743376 1.12158548,15.0464794 C1.39764619,15.318478 1.75914073,15.5360195 2.20592693,15.6986741 C2.65285529,15.8611854 3.17412956,15.9425843 3.76974973,15.9425843 C4.30964601,15.9425843 4.78571569,15.8674909 5.19838523,15.7174475 Z M17.683238,15.0887553 C17.9685386,14.8260717 18.1998212,14.4961767 18.3765171,14.0987837 C18.5534973,13.7013906 18.6775967,13.280925 18.7489574,12.8366702 C18.8201759,12.3924154 18.8559984,11.8921272 18.8559984,11.3352323 L18.8559984,4.51334194 C18.8559984,3.82532026 18.792314,3.21712114 18.6652294,2.68831464 C18.5378605,2.15979477 18.3314547,1.6888847 18.046154,1.27601437 C17.7607112,0.863144043 17.3666637,0.547436534 16.8641536,0.328318612 C16.3613592,0.109487307 15.7530874,0 15.0396226,0 C14.4626244,0 13.9554233,0.0736603085 13.517877,0.220551002 C13.0804729,0.367441695 12.7175568,0.569219349 12.4288445,0.825883965 C12.1402744,1.08240527 11.9044429,1.40284195 11.7214923,1.7874806 C11.5382573,2.17226256 11.4096091,2.58513289 11.335121,3.02609158 C11.2607751,3.46719359 11.2235311,3.96303924 11.2235311,4.51334194 L11.2235311,11.3070007 C11.2235311,11.8638955 11.2590693,12.3660467 11.3305721,12.8131677 C11.4017906,13.2605752 11.5260322,13.684337 11.7027281,14.0847395 C11.8797083,14.4849987 12.1092851,14.8181898 12.3917427,15.0841694 C12.6739159,15.3498625 13.0383957,15.5595221 13.485324,15.7127183 C13.9321102,15.8659145 14.450115,15.9425843 15.0396226,15.9425843 C15.6291302,15.9425843 16.1458556,15.8659145 16.5895144,15.7127183 C17.0331733,15.5595221 17.397653,15.3515822 17.683238,15.0887553 Z M12.8197647,14.0940545 C12.6180499,13.7688887 12.4768922,13.4027368 12.3962915,12.996172 C12.3155488,12.5896072 12.2753195,12.1047963 12.2753195,11.5417392 L12.2753195,4.36329847 C12.2753195,3.80024136 12.3155488,3.31700681 12.3962915,2.91359481 C12.4768922,2.5100395 12.6180499,2.14732697 12.8197647,1.82502729 C13.0213373,1.50287092 13.3067801,1.26068042 13.6760931,1.09788254 C14.0452639,0.935084656 14.4998685,0.853829024 15.0396226,0.853829024 C15.5795189,0.853829024 16.0341235,0.935084656 16.4032943,1.09788254 C16.7724651,1.26068042 17.0579078,1.50287092 17.2597648,1.82502729 C17.4611953,2.14732697 17.602353,2.5100395 17.683238,2.91359481 C17.7636964,3.31700681 17.80421,3.80024136 17.80421,4.36329847 L17.80421,11.5417392 C17.80421,12.1047963 17.7622749,12.5896072 17.6785469,12.996172 C17.5948189,13.4027368 17.453519,13.7688887 17.2550738,14.0940545 C17.0563442,14.4193637 16.7724651,14.6649936 16.4032943,14.8306576 C16.0341235,14.996465 15.5795189,15.079297 15.0396226,15.079297 C14.4998685,15.079297 14.0452639,14.996465 13.6760931,14.8306576 C13.3067801,14.6649936 13.0213373,14.4193637 12.8197647,14.0940545 Z M24.2060607,15.7360775 L24.2060607,2.5709454 L29.4465231,15.7360775 L30.2654653,15.7360775 L30.2654653,0.178275144 L29.3441731,0.178275144 L29.3441731,13.3151756 L24.1130928,0.178275144 L23.2846263,0.178275144 L23.2846263,15.7360775 L24.2060607,15.7360775 Z M40.6281191,15.0652528 C41.2516012,14.4867184 41.5636266,13.6341792 41.5636266,12.5082083 C41.5636266,11.7450932 41.360206,11.0208146 40.9537912,10.3359457 C40.5473763,9.6510768 39.9871522,8.9518771 39.2736874,8.23877653 L36.4906201,5.47063933 C36.081078,5.05160676 35.7893804,4.65579008 35.6156697,4.28347592 C35.4418169,3.91144837 35.3551037,3.52193724 35.3551037,3.11537246 C35.3551037,2.35841964 35.5785679,1.79378615 36.0252119,1.42147198 C36.4719981,1.04944443 37.0708878,0.857125107 37.8217388,0.844514004 L37.9148489,0.844514004 C38.7711773,0.844514004 39.3932379,1.10719756 39.7810307,1.63270797 C40.1688235,2.15807507 40.4123312,2.98395903 40.511696,4.10992994 L41.3866464,3.90342312 C41.2996489,2.49599532 40.95834,1.49355591 40.362862,0.896104882 C39.7670997,0.298797166 38.9201534,0 37.8217388,0 L37.7937347,0 C36.7636956,0.0063055517 35.9430476,0.286042754 35.3317906,0.83978484 C34.7206758,1.39338362 34.4150473,2.17699172 34.4150473,3.19046585 C34.4150473,4.26011671 34.8618335,5.24521586 35.7552638,6.14633652 L38.5757172,8.98010878 C39.2768147,9.68088487 39.7871432,10.2936698 40.1068449,10.8191803 C40.4262622,11.3446907 40.586184,11.9263778 40.586184,12.5645283 C40.586184,14.234783 39.7639723,15.0698386 38.1195489,15.0698386 C37.7286287,15.0698386 37.382771,15.0136619 37.0816914,14.9010218 C36.7806118,14.7883817 36.5309915,14.6369052 36.3325462,14.4460189 C36.1338166,14.2551327 35.9630911,14.0080697 35.8203697,13.7046867 C35.6777905,13.4011604 35.5676221,13.0868859 35.4900067,12.7615768 C35.4125334,12.436411 35.3458637,12.051629 35.2899977,11.6073742 L34.3778033,11.8982894 C34.6011253,14.5884671 35.8452465,15.933126 38.110309,15.933126 C39.1650826,15.933126 40.0044948,15.6439305 40.6281191,15.0652528 Z M48.2911493,15.7360775 L48.2911493,1.01333082 L51.4931408,1.01333082 L51.4931408,0.178275144 L43.9817876,0.178275144 L43.9817876,1.01333082 L47.248743,1.01333082 L47.248743,15.7360775 L48.2911493,15.7360775 Z M60.0731987,15.7360775 L60.0731987,14.9104802 L55.7263087,14.9104802 L55.7263087,8.0696731 L59.2541143,8.0696731 L59.2541143,7.25339077 L55.7263087,7.25339077 L55.7263087,1.01333082 L60.0267147,1.01333082 L60.0267147,0.178275144 L54.6839023,0.178275144 L54.6839023,15.7360775 L60.0731987,15.7360775 Z M69.7886309,15.7360775 L69.7886309,14.9104802 L65.1254509,14.9104802 L65.1254509,0.178275144 L64.0830445,0.178275144 L64.0830445,15.7360775 L69.7886309,15.7360775 Z M78.806235,15.7360775 L78.806235,14.9104802 L74.1429128,14.9104802 L74.1429128,0.178275144 L73.1003643,0.178275144 L73.1003643,15.7360775 L78.806235,15.7360775 Z M85.1525039,1.4451178 L87.0139947,10.6596785 L83.3093509,10.6596785 L85.1525039,1.4451178 Z M82.3320505,15.7360775 L83.160517,11.4384141 L87.1628286,11.4384141 L87.963291,15.7360775 L89.0058395,15.7360775 L85.7388842,0.178275144 L84.5473595,0.178275144 L81.3082662,15.7360775 L82.3320505,15.7360775 Z M95.7056425,15.7360775 L95.7056425,1.01333082 L98.9074918,1.01333082 L98.9074918,0.178275144 L91.3961386,0.178275144 L91.3961386,1.01333082 L94.6630939,1.01333082 L94.6630939,15.7360775 L95.7056425,15.7360775 Z M102.135497,15.7360775 L103.168664,15.7360775 L103.168664,0.178275144 L102.135497,0.178275144 L102.135497,15.7360775 Z M114.075763,15.0887553 C114.361063,14.8260717 114.592204,14.4961767 114.769042,14.0987837 C114.946022,13.7013906 115.070121,13.280925 115.141482,12.8366702 C115.212701,12.3924154 115.248381,11.8921272 115.248381,11.3352323 L115.248381,4.51334194 C115.248381,3.82532026 115.184839,3.21712114 115.057754,2.68831464 C114.930385,2.15979477 114.724122,1.6888847 114.438679,1.27601437 C114.153236,0.863144043 113.759331,0.547436534 113.256536,0.328318612 C112.754026,0.109487307 112.145754,0 111.432289,0 C110.855291,0 110.347948,0.0736603085 109.910402,0.220551002 C109.47314,0.367441695 109.109939,0.569219349 108.821511,0.825883965 C108.532941,1.08240527 108.296968,1.40284195 108.114017,1.7874806 C107.930924,2.17226256 107.802276,2.58513289 107.727788,3.02609158 C107.6533,3.46719359 107.616056,3.96303924 107.616056,4.51334194 L107.616056,11.3070007 C107.616056,11.8638955 107.651594,12.3660467 107.723097,12.8131677 C107.794315,13.2605752 107.918557,13.684337 108.095395,14.0847395 C108.272233,14.4849987 108.50181,14.8181898 108.784125,15.0841694 C109.066441,15.3498625 109.431205,15.5595221 109.877849,15.7127183 C110.324777,15.8659145 110.842782,15.9425843 111.432289,15.9425843 C112.021797,15.9425843 112.538238,15.8659145 112.982039,15.7127183 C113.425556,15.5595221 113.79032,15.3515822 114.075763,15.0887553 Z M109.212432,14.0940545 C109.010575,13.7688887 108.869417,13.4027368 108.788816,12.996172 C108.708216,12.5896072 108.667844,12.1047963 108.667844,11.5417392 L108.667844,4.36329847 C108.667844,3.80024136 108.708216,3.31700681 108.788816,2.91359481 C108.869417,2.5100395 109.010575,2.14732697 109.212432,1.82502729 C109.414004,1.50287092 109.699447,1.26068042 110.06876,1.09788254 C110.437789,0.935084656 110.892393,0.853829024 111.432289,0.853829024 C111.972186,0.853829024 112.426648,0.935084656 112.795961,1.09788254 C113.164848,1.26068042 113.450433,1.50287092 113.652147,1.82502729 C113.853862,2.14732697 113.99502,2.5100395 114.075763,2.91359481 C114.156221,3.31700681 114.196735,3.80024136 114.196735,4.36329847 L114.196735,11.5417392 C114.196735,12.1047963 114.1548,12.5896072 114.071072,12.996172 C113.987201,13.4027368 113.846044,13.7688887 113.647598,14.0940545 C113.448869,14.4193637 113.164848,14.6649936 112.795961,14.8306576 C112.426648,14.996465 111.972186,15.079297 111.432289,15.079297 C110.892393,15.079297 110.437789,14.996465 110.06876,14.8306576 C109.699447,14.6649936 109.414004,14.4193637 109.212432,14.0940545 Z M120.598585,15.7360775 L120.598585,2.5709454 L125.839048,15.7360775 L126.658132,15.7360775 L126.658132,0.178275144 L125.736698,0.178275144 L125.736698,13.3151756 L120.505617,0.178275144 L119.677151,0.178275144 L119.677151,15.7360775 L120.598585,15.7360775 Z" id="Fill-1"></path>
                    </g>
                    <path d="M17.1243609,0 L0,9.7602912 L0,29.2826711 L17.1243609,39.0430622 L33.6830087,29.6057273 L33.6840163,29.6075248 L33.9234418,29.4686157 L34.0792296,29.3797378 L34.2492257,29.2826711 L34.2492257,29.2794755 L34.2687747,29.268191 L34.2492257,29.2349367 L34.2492257,9.7602912 L17.1243609,0 Z M17.291737,0.87010464 L32.7872794,9.7017716 L12.1722043,9.7017716 L17.291737,0.87010464 Z M1.05564856,9.93315372 L16.2895964,1.25058194 L6.13023865,18.7770039 L1.05564856,9.93315372 Z M23.0937734,10.373349 L33.5713574,10.373349 L33.5713574,28.0888113 L23.0937734,10.373349 Z M11.990116,10.373349 L21.6326332,10.373349 L11.990116,15.8071839 L11.990116,10.373349 Z M0.677565952,10.6326927 L11.0444056,28.6992726 L0.677565952,28.6992726 L0.677565952,10.6326927 Z M17.8190575,13.2947355 L22.4821099,10.6670455 L27.1919188,18.6306051 L17.8190575,13.2947355 Z M6.58278902,19.3445243 L11.3126508,11.184934 L11.3126508,22.037225 L6.58278902,19.3445243 Z M17.266545,13.7547036 L21.3527997,16.0810077 L15.9181645,16.0810077 L17.266545,13.7547036 Z M12.1219209,16.5054247 L16.2337708,14.1883079 L13.4992218,18.9057271 L12.1219209,16.5054247 Z M19.5972146,16.7523854 L22.2739226,16.7523854 L22.2739226,21.4173766 L19.5972146,16.7523854 Z M13.8879859,19.5832962 L15.5288966,16.7523854 L18.8175704,16.7523854 L20.3595267,19.4394938 L18.7116629,22.2822883 L15.4364921,22.2822883 L13.8879859,19.5832962 Z M22.9513878,16.9909576 L27.6453761,19.6631865 L22.9513878,27.7609617 L22.9513878,16.9909576 Z M11.990116,17.6340741 L14.6570494,22.2822883 L11.990116,22.2822883 L11.990116,17.6340741 Z M20.74819,20.1169631 L22.1312347,22.5272518 L18.002355,24.8540552 L20.74819,20.1169631 Z M28.1178786,20.1961543 L33.3400942,29.0262234 L17.8977575,37.8274322 L28.1178786,20.1961543 Z M7.05448537,20.3876912 L16.4434696,25.7325483 L11.6662467,28.4248496 L7.05448537,20.3876912 Z M12.9224242,22.953666 L18.3224958,22.953666 L16.9826807,25.2649907 L12.9224242,22.953666 Z M22.2739226,23.2194009 L22.2739226,28.6992726 L12.5503877,28.6992726 L22.2739226,23.2194009 Z M1.51353965,29.3709499 L22.0181727,29.3709499 L16.9262505,38.155182 L1.51353965,29.3709499 Z" id="Fill-3"></path>
                    <path d="M17.1243609,0 L0,9.7602912 L0,29.2826711 L17.1243609,39.0430622 L33.6830087,29.6057273 L33.6840163,29.6075248 L33.9234418,29.4686157 L34.0792296,29.3797378 L34.2492257,29.2826711 L34.2492257,29.2794755 L34.2687747,29.268191 L34.2492257,29.2349367 L34.2492257,9.7602912 L17.1243609,0 Z M17.291737,0.87010464 L32.7872794,9.7017716 L12.1722043,9.7017716 L17.291737,0.87010464 Z M1.05564856,9.93315372 L16.2895964,1.25058194 L6.13023865,18.7770039 L1.05564856,9.93315372 Z M23.0937734,10.373349 L33.5713574,10.373349 L33.5713574,28.0888113 L23.0937734,10.373349 Z M11.990116,10.373349 L21.6326332,10.373349 L11.990116,15.8071839 L11.990116,10.373349 Z M0.677565952,10.6326927 L11.0444056,28.6992726 L0.677565952,28.6992726 L0.677565952,10.6326927 Z M17.8190575,13.2947355 L22.4821099,10.6670455 L27.1919188,18.6306051 L17.8190575,13.2947355 Z M6.58278902,19.3445243 L11.3126508,11.184934 L11.3126508,22.037225 L6.58278902,19.3445243 Z M17.266545,13.7547036 L21.3527997,16.0810077 L15.9181645,16.0810077 L17.266545,13.7547036 Z M12.1219209,16.5054247 L16.2337708,14.1883079 L13.4992218,18.9057271 L12.1219209,16.5054247 Z M19.5972146,16.7523854 L22.2739226,16.7523854 L22.2739226,21.4173766 L19.5972146,16.7523854 Z M13.8879859,19.5832962 L15.5288966,16.7523854 L18.8175704,16.7523854 L20.3595267,19.4394938 L18.7116629,22.2822883 L15.4364921,22.2822883 L13.8879859,19.5832962 Z M22.9513878,16.9909576 L27.6453761,19.6631865 L22.9513878,27.7609617 L22.9513878,16.9909576 Z M11.990116,17.6340741 L14.6570494,22.2822883 L11.990116,22.2822883 L11.990116,17.6340741 Z M20.74819,20.1169631 L22.1312347,22.5272518 L18.002355,24.8540552 L20.74819,20.1169631 Z M28.1178786,20.1961543 L33.3400942,29.0262234 L17.8977575,37.8274322 L28.1178786,20.1961543 Z M7.05448537,20.3876912 L16.4434696,25.7325483 L11.6662467,28.4248496 L7.05448537,20.3876912 Z M12.9224242,22.953666 L18.3224958,22.953666 L16.9826807,25.2649907 L12.9224242,22.953666 Z M22.2739226,23.2194009 L22.2739226,28.6992726 L12.5503877,28.6992726 L22.2739226,23.2194009 Z M1.51353965,29.3709499 L22.0181727,29.3709499 L16.9262505,38.155182 L1.51353965,29.3709499 Z" id="Fill-3"></path>
                </g>
            </g>
        </g>
    </g>
</svg>